<svg width="100" height="87" fill="none" xmlns="http://www.w3.org/2000/svg"><path d="M74.486 82.076V81.8a2.34 2.34 0 012.278-2.335H72.76c-.014 0-.028 0-.044-.002A2.34 2.34 0 0070.42 81.8v.276a2.342 2.342 0 002.34 2.34h4.064a2.341 2.341 0 01-2.34-2.34z" fill="#E3E5E8"/><path d="M95.264 79.463l-.044.002h.06c-.005-.002-.01-.002-.016-.002zm.002-7.393c-.016 0-.03.003-.046.003h.065l-.019-.002zm-.046 4.95c.014 0 .028 0 .044.002.007 0 .01 0 .017-.002h-.061z" fill="#D4E1F4"/><path d="M74.486 74.684v-.276a2.34 2.34 0 012.274-2.335h-4l-.047-.002a2.342 2.342 0 00-2.292 2.337v.276a2.34 2.34 0 002.295 2.338l.044-.002h4.004a2.334 2.334 0 01-2.278-2.336zm0-7.39v-.276a2.34 2.34 0 012.278-2.335h-4.048a2.34 2.34 0 00-2.295 2.337v.276a2.342 2.342 0 002.292 2.338l.047-.002h4a2.338 2.338 0 01-2.274-2.338z" fill="#E3E5E8"/><path d="M95.22 69.63c.016 0 .03 0 .046.002.007 0 .01 0 .017-.003h-.063zm.046-12.342l-.046.002h.065c-.006 0-.012 0-.019-.002z" fill="#D4E1F4"/><path d="M74.486 59.904v-.276a2.34 2.34 0 012.274-2.336h-4c-.016 0-.03 0-.047-.002a2.342 2.342 0 00-2.292 2.338v.276a2.34 2.34 0 002.295 2.337h4.048a2.34 2.34 0 01-2.278-2.337z" fill="#E3E5E8"/><path d="M95.266 49.898l-.046.002h.065l-.019-.002zm-.046 4.949l.046.002c.007 0 .01 0 .017-.002h-.063z" fill="#D4E1F4"/><path d="M74.486 52.512v-.276A2.34 2.34 0 0176.76 49.9h-4c-.016 0-.03 0-.047-.002a2.342 2.342 0 00-2.292 2.338v.276a2.342 2.342 0 002.292 2.337l.047-.002h4a2.338 2.338 0 01-2.274-2.335z" fill="#E3E5E8"/><path d="M95.22 47.457c.016 0 .03 0 .046.002.007 0 .01 0 .017-.002h-.063zm.046-4.949l-.046.002h.065c-.006-.002-.012-.002-.019-.002z" fill="#D4E1F4"/><path d="M74.486 45.122v-.276a2.34 2.34 0 012.274-2.336h-4c-.016 0-.03 0-.047-.002a2.342 2.342 0 00-2.292 2.337v.277a2.342 2.342 0 002.292 2.337l.047-.002h4a2.336 2.336 0 01-2.274-2.335z" fill="#E3E5E8"/><path d="M95.266 35.116h-.046.06c-.003.002-.01 0-.014 0zm-.046 4.951c.016 0 .03 0 .046.002.007 0 .01 0 .017-.002h-.063z" fill="#D4E1F4"/><path d="M74.486 37.732v-.279a2.34 2.34 0 012.276-2.335h-4.049a2.34 2.34 0 00-2.292 2.337v.279a2.342 2.342 0 002.292 2.337l.047-.002h4a2.338 2.338 0 01-2.274-2.337zm0-7.392v-.277a2.342 2.342 0 012.34-2.34H72.76a2.344 2.344 0 00-2.34 2.34v.277a2.342 2.342 0 002.293 2.337l.047-.002h4.002a2.338 2.338 0 01-2.276-2.335z" fill="#E3E5E8"/><path d="M95.22 32.675c.016 0 .03 0 .046.002.007 0 .01 0 .017-.002h-.063z" fill="#D4E1F4"/><path d="M45.13 57.134a13.586 13.586 0 011.407 4.955h4.065a13.586 13.586 0 00-1.406-4.955H45.13zm5.462 7.467a3.49 3.49 0 00.006-.057h-4.065l-.006.057a13.526 13.526 0 01-1.427 4.9h4.066a13.503 13.503 0 001.412-4.76l.014-.14zm-3.034 7.356h-4.065a13.573 13.573 0 01-6.404 4.372 2.467 2.467 0 001.602.583h4.064a2.475 2.475 0 01-1.601-.583 13.588 13.588 0 006.404-4.372zm-7.28 10.119V81.8a2.344 2.344 0 012.34-2.34h-4.066a2.344 2.344 0 00-2.34 2.34v.276a2.344 2.344 0 002.34 2.34h4.065a2.341 2.341 0 01-2.34-2.34zm0-37.133v-.276a2.344 2.344 0 012.34-2.34h-4.066a2.344 2.344 0 00-2.34 2.34v.276a2.344 2.344 0 002.34 2.34h4.065a2.339 2.339 0 01-2.34-2.34zm.934 5.317c.44-.35.982-.539 1.541-.539h-4.065c-.56 0-1.104.19-1.54.539a13.74 13.74 0 016.396 4.417h4.065a13.755 13.755 0 00-6.397-4.417zM6.504 67.022a2.478 2.478 0 012.477-2.478H4.916a2.478 2.478 0 000 4.956h4.065a2.48 2.48 0 01-2.477-2.478zm-.077 7.42a2.492 2.492 0 012.488-2.487H4.833a2.486 2.486 0 00-.53 4.914c.13-.01.26-.016.392-.016h3.622a2.487 2.487 0 01-1.89-2.41z" fill="#E3E5E8"/><path d="M27.63 76.871c.02-.004.04-.012.06-.016l-.06.016z" fill="#D4E1F4"/><path d="M6.517 81.855v-.283a2.376 2.376 0 011.788-2.298l-3.98-.035a2.378 2.378 0 00-1.936 2.333v.283a2.38 2.38 0 002.376 2.376h4.128a2.38 2.38 0 01-2.376-2.376z" fill="#E3E5E8"/><path d="M32.92 69.034l-.024-.002-.025.002a2.31 2.31 0 01-2.282-2.307 1.22 1.22 0 00-2.44 0 4.756 4.756 0 003.53 4.587v1.04a1.22 1.22 0 002.438 0v-1.04a4.748 4.748 0 00-1.22-9.335 2.309 2.309 0 112.31-2.309 1.22 1.22 0 002.439 0 4.754 4.754 0 00-3.529-4.587v-.878a1.22 1.22 0 00-2.439 0v.878a4.748 4.748 0 001.22 9.335 2.307 2.307 0 01.022 4.616z" fill="#EE6800"/><path d="M99.998 30.34v-.277a4.783 4.783 0 00-4.778-4.778H72.76a4.783 4.783 0 00-4.778 4.778v.277c0 1.357.58 2.652 1.592 3.557a4.764 4.764 0 00-1.592 3.556v.279c0 1.358.58 2.652 1.592 3.557a4.772 4.772 0 00-1.592 3.556v.277c0 1.358.58 2.652 1.592 3.557a4.772 4.772 0 00-1.592 3.557v.276c0 1.358.58 2.652 1.592 3.557a4.772 4.772 0 00-1.592 3.557v.276c0 1.358.58 2.652 1.592 3.557a4.764 4.764 0 00-1.592 3.557v.276c0 1.358.58 2.653 1.592 3.557a4.765 4.765 0 00-1.592 3.557v.276c0 1.358.58 2.653 1.592 3.557a4.772 4.772 0 00-1.592 3.557v.276a4.783 4.783 0 004.779 4.779h22.46A4.783 4.783 0 00100 82.072v-.276c0-1.358-.58-2.652-1.591-3.557A4.757 4.757 0 00100 74.682v-.276c0-1.358-.58-2.653-1.591-3.557A4.771 4.771 0 00100 67.292v-.276c0-1.358-.58-2.653-1.591-3.557A4.765 4.765 0 00100 59.902v-.276c0-1.358-.58-2.653-1.591-3.557A4.772 4.772 0 00100 52.512v-.276c0-1.358-.58-2.653-1.591-3.557A4.772 4.772 0 00100 45.122v-.276c0-1.358-.58-2.653-1.591-3.557A4.772 4.772 0 00100 37.732v-.277c0-1.357-.58-2.652-1.591-3.556a4.785 4.785 0 001.589-3.56zm-2.439 51.736a2.344 2.344 0 01-2.34 2.34H72.762a2.344 2.344 0 01-2.34-2.34V81.8a2.34 2.34 0 012.295-2.337h22.548A2.34 2.34 0 0197.56 81.8v.276zm0-7.392a2.34 2.34 0 01-2.295 2.338H72.716a2.34 2.34 0 01-2.295-2.338v-.276a2.342 2.342 0 012.293-2.337h22.554a2.342 2.342 0 012.293 2.337v.276h-.002zm0-7.39a2.342 2.342 0 01-2.293 2.338H72.712a2.342 2.342 0 01-2.293-2.338v-.276a2.34 2.34 0 012.295-2.338h22.548a2.34 2.34 0 012.295 2.338v.276h.002zm0-7.39a2.34 2.34 0 01-2.295 2.337H72.716a2.34 2.34 0 01-2.295-2.337v-.276a2.342 2.342 0 012.293-2.338h22.554a2.342 2.342 0 012.293 2.338v.276h-.002zm0-7.392a2.342 2.342 0 01-2.293 2.337H72.712a2.342 2.342 0 01-2.293-2.337v-.276a2.342 2.342 0 012.293-2.338h22.554a2.342 2.342 0 012.293 2.338v.276zm0-7.39a2.342 2.342 0 01-2.293 2.337H72.712a2.342 2.342 0 01-2.293-2.337v-.276a2.342 2.342 0 012.293-2.338h22.554a2.342 2.342 0 012.293 2.337v.277zm0-7.39a2.342 2.342 0 01-2.293 2.337H72.712a2.342 2.342 0 01-2.293-2.337v-.279a2.342 2.342 0 012.293-2.337h22.552a2.34 2.34 0 012.293 2.337l.002.279zm0-7.392a2.342 2.342 0 01-2.293 2.337H72.714a2.34 2.34 0 01-2.293-2.337v-.277a2.342 2.342 0 012.34-2.34h22.46a2.344 2.344 0 012.34 2.34v.277h-.002z" fill="#1B3B8D"/><path d="M10.012 41.96c.254 0 .504-.08.709-.23l34.613-24.855 11.467 13.573a1.22 1.22 0 001.677.178L87.024 8.613l3.89 4.473a1.22 1.22 0 002.136-.715l.722-10.346a1.22 1.22 0 00-1.132-1.3L82.295.003a1.218 1.218 0 00-1.004 2.018l4.13 4.748-27.51 21.215L46.468 14.44a1.218 1.218 0 00-1.642-.204L9.3 39.75a1.218 1.218 0 00.712 2.21zM91.256 3.071l-.431 6.191-5.76-6.624 6.19.433z" fill="#EE6800"/><path d="M65.79 44.943v-.276a4.782 4.782 0 00-4.78-4.779H38.55a4.783 4.783 0 00-4.778 4.779v.276a4.77 4.77 0 001.636 3.596c-.368.329-.683.71-.937 1.136-7.5-.882-14.295 4.481-15.177 11.98-.018.15-.032.3-.044.45H4.917A4.914 4.914 0 001.69 70.73a4.907 4.907 0 00-.096 7.327A4.758 4.758 0 000 81.613v.276a4.783 4.783 0 004.778 4.779H27.24a4.783 4.783 0 004.779-4.779v-.276c0-1.358-.58-2.652-1.592-3.557.37-.34.685-.733.935-1.168 1.018.117 2.049.117 3.067 0 .273.477.624.904 1.039 1.266a4.772 4.772 0 00-1.693 3.644v.276a4.783 4.783 0 004.778 4.779h22.46a4.783 4.783 0 004.78-4.779v-.276a4.765 4.765 0 00-1.702-3.65 4.908 4.908 0 00.01-7.42 4.907 4.907 0 000-7.413 4.905 4.905 0 000-7.41 4.907 4.907 0 00.053-7.367 4.767 4.767 0 001.636-3.595zM4.916 64.544h14.34c.16 1.728.65 3.41 1.44 4.956H4.917a2.478 2.478 0 010-4.956zm0 7.413h17.387a13.72 13.72 0 006.4 4.361 2.474 2.474 0 01-1.075.535H4.39a2.476 2.476 0 01.528-4.896zm24.66 9.934a2.344 2.344 0 01-2.34 2.34H4.778a2.344 2.344 0 01-2.339-2.34v-.276a2.34 2.34 0 011.908-2.297l23.315-.002a2.341 2.341 0 011.917 2.3v.275h-.002zm3.317-7.353c-6.218 0-11.258-5.04-11.258-11.258 0-6.217 5.04-11.258 11.258-11.258 6.217 0 11.258 5.04 11.258 11.258-.007 6.213-5.043 11.25-11.258 11.258zm30.456 7.538a2.342 2.342 0 01-2.34 2.34H38.55a2.344 2.344 0 01-2.34-2.34V81.8a2.344 2.344 0 012.34-2.34h22.46a2.344 2.344 0 012.34 2.34v.276zm-2.477-5.164H38.69a2.464 2.464 0 01-1.61-.592 13.756 13.756 0 006.407-4.363h17.388a2.478 2.478 0 01-.002 4.955zm0-7.413h-15.78a13.57 13.57 0 001.438-4.955h14.342a2.478 2.478 0 010 4.956zm0-7.41H46.538a13.586 13.586 0 00-1.407-4.955h15.744a2.478 2.478 0 11-.002 4.955zm0-7.412h-17.33a13.74 13.74 0 00-6.395-4.417c.439-.35.981-.539 1.54-.539h22.185a2.478 2.478 0 010 4.956zm2.477-9.734a2.343 2.343 0 01-2.34 2.34H38.55a2.344 2.344 0 01-2.34-2.34v-.276a2.344 2.344 0 012.34-2.34h22.46a2.344 2.344 0 012.34 2.34v.276z" fill="#1B3B8D"/></svg>