<svg width="1001" height="652" fill="none" xmlns="http://www.w3.org/2000/svg"><path d="M533.864 482.08l-2.7 2.1-5.801 5.801-.7.6-.7.3-.6-.1-.7.1-.4.2-.4.3-4.401 4.8-.5.8-.4.601-.1.4v.4l.1.4.1.3.3.7.4.6 1.801 2.3.2.3.2.3v.5l-.1.6-.3.3-.3.2-9.702 3.501-3.1 1.1-8.001 3.3-2.7 1.801-5.301 5.9-.9.9-1.8-2.3-1.4-.8-1.701.2-4.5 2.2-1.5.4-1.701-.4-1.8-.9-9.301-6.701-8.101-5.8-6.501-4.601-3.5-3.7-6.201-8.701-3.7-3.601-8.101-5.7-19.203-13.702-9.401-6.801-7.901-5.701-6.801-4.8-3.4-3.401-.6-.4-4.201-5.3-.6-2.001-1-4.3-.2-1.7.2-1.601.5-1.4.3-1.4-.2-1.6-1.8-3.901-.2-1.6v-2l-.3-1.5-.4-1.4-1.5-3.001-.4-1.4-.2-3.2-.5-.7-4.801-2.801-2.8-.8-1.3-1-.201-.5 12.102-15.102 3-6.501-.7-2.6-1.9-2.9-9.501-10.702 13.101-6.3v-1.1l-16.502-23.003 20.603-7.801 4.901.1 1.8 4.3 1.5 2.501 9.701 11.601 7.901 13.902 1.4.8 5.101 1.1 7.601 3 9.001 5.101 17.502 10.801 1.3 2.301 2.1 2.1-.1 1.5 7.001-2.4 4.101-6.201 3.5-7.201 1-1.5 1.1-1 1.201-.4 1.1.3 1.1 1 1.2 1.8.3 2.6.1 5.001.8 1.7 2.5.9 15.702 1.901 1.301-1.301 1.8-6.8 1.1-.601 2-.8 7.701-.3 2.5-.5 1.901-.8 1.8-2.7.7.1.5 1.8 1.3 7.801.5 2 .8 2.301 2.001 1.6 2 1.2 5.8 1.4 17.603 1.2 2.8-.8-1.4 4.801-.3 1.9-.1 2v1.9l.1 1.601.3.9-.1.9-.8-.1-3.001-.6-.6-.1-.5.2-.5.4-.6 1-.1.9-1.6 4.901-1.3 1.5-1 1-1.301 4.2-.7 1.301-6.8-.1-1.301-.4-1.3-.901-1.1-1-1.2-.3h-1.3l-2 .3-1.001.6-.5.6-.2.701-.1.8v.6l.3 1.5 1.501 1.5-1.001 2.8-.5.5-.3.1v.201l.1.3.6 1.1 1.701 1.7.9 1.2.3.5-.1.2-1.7.2-.401.1-.4.3-.4.3-.6.1-.8.7-2.8 5.601-.8 1.1-1 1-1.101.8-3.5 1.601-.5 1-.4.5-.2.3-1.9 2.4-1 2.1-.8 1.901.9 1.9 4.2 5.901 1.7 1.1 2.701 1.5.1.4.3.7.2.6.8.5h1.1l2.5-1.1.9.1.5.9 7.001 3.3 1 1.701.5 1.7v1.3l.2 1.6.501 1.6 1.1.601 1.4.5.9.5 1 1.1.9 1.2.3.5.3.8.6 2 .1.5.1 2.101z" fill="#E3E5E8" stroke="#fff" stroke-linecap="round" stroke-linejoin="round"/><path d="M365.444 365.265l9.501 10.701 1.9 2.9.7 2.601-3 6.501-12.101 15.101-.1-.1-.501-1.8-.3-.7-2.2-2.9-.8-1.601-1.2-4.7-.7-1.1-1.9-2.1-.6-1.001-.5-1.6-.601-3.5-1.9-6.501-.6-1.5.4-.6-.3-1.1-.1-5.401-.2-1.6-.5-1.3-4.3-7.201-1.101-1.2-13.001-9.602-5.001-2.2-5.701-1.5-2.1-.3-1.3.7-.8 1.6-.6 2.701-1.4.8-1.1 2.5-1.701 1.8-2 1-2.2.1-2.3-1-6.001-4.3h-1.1l-3.401.6-.3-.7-.2-.7-.2-.2-1.1 1.9-.4.4-.4.4-2.8-2.9-4.001-1.001-11.701.7-7.101 2.401h-3.501l-2-.5-1.6-1.2-3.2-3.201-3.501-2.6-5.6-2.901-6.401-3.3-1.6-1.6-.401-1.8.701-6.301.5-1.3.7-1.1 1-.9 2.4-1.201.8-.9-.5-1.5-3.9-5.501-1.701-3.4-.6-2.8 1.501-2.101 1.6-1.1 1.8-.2 2.2.7 2.001 1.3 1.2.501.9-.1.6-1.001-.1-1.1-.5-1.1-.7-.9-.8-.7-2.801-1.7-.9-.9-.6-1.001.7-.7.6-1.8-.1-.8-.6-1.4-.2-.3-.1-.4.2-.3.4-.3.9-.2 1.6-.1 1.201-.5 3-2.101 1.1-1 .3-.2 1-.1 1.2.9.601.4 2.9.701 2.9.3.8.7.2 1.6v3.5l.5 1.3 1.501 2.401.7 2 1.6 2.9.8 1.1 1 .701 1.3.3h2.701l1 .6.6 1.3 1 3 1.5 2.7 1.9 2.101 13.702 12.501 1.5.3.8.3.6.5 2.101 2.301 1.8 1.7 1.3.5 3.4.6 1.101.7 3.1 3.4.7 1.101.7 2.3.9.4.4.3 1.3.5 1.501-.1 1-.8 2.3-4.501 1-1.1.9-.7 1-.5 1.2-.3h3.101l11.101 2.7 2.801 1.201 2.7 1.6 3.4 2.6 9.901 11.001 6.901 11.102.3.2.8.5.801.3 3.1-1z" fill="#E3E5E8" stroke="#fff" stroke-linecap="round" stroke-linejoin="round"/><path d="M353.143 170.341l6.3 10.702 2.901 2.7 15.702 4.301.9.5v.8l-.4 1-15.802 29.904-14.902 28.703-3.2 7.501-1.301 16.302v.9l.2.8 6.601 12.202 1.2 2.5-.3.4-.7.7-12.501 7.101-1.2 1.1v1l.5 1.1 24.903 34.304 16.502 23.003v1.1l-13.102 6.301-3.1 1-.8-.3-.801-.5-.3-.2-6.9-11.101-9.902-11.001-3.4-2.601-2.7-1.6-2.801-1.2-11.101-2.7h-3.1l-1.201.3-1 .5-.9.7-1 1.1-2.3 4.5-1 .8-1.5.1-1.301-.5-.4-.3-.9-.4-.7-2.3-.7-1.1-3.1-3.4-1.1-.701-3.401-.6-1.3-.5-1.8-1.7-2.101-2.3-.6-.5-.8-.3-1.5-.3-13.702-12.502-1.9-2.1-1.5-2.7-1-3.001-.6-1.3-1-.6h-2.701l-1.3-.3-1-.7-.8-1.1-1.6-2.901-.7-2-1.5-2.4-.5-1.3v-3.501l-.201-1.6-.8-.7-2.9-.3-2.9-.7-.6-.4-1.201-.9-1 .1-.3.2-1.1 1-3 2.1-1.2.5-1.601.1-.9.2-.4.3-.2.3.1.4.2.3.6 1.401.1.8-.6 1.8-.7.7-1.4-2-1.7-1.5-6.101-2.301-3 .1-.8-.4-.7-1.1.1-1 .7-.8 1-.3h.1l3.4-1.3-.2-3.101-1.1-3.9.5-3.601 1-.7 1.2-.5.9-.7.201-1.3-.701-1-1.3-.8-2.6-1-2.1-1.901-1.6-2.5-1.801-2-2.6-.3-2.6.3-5.101-.5-12.301 1.9-3.001-.1-1.4-.5-2.3-2.5-1.4-.5-3.001-.3-1.6-1.001-.8-1.4-.7-6-.5-1.501-.9-1.3-3.701-3.9-1.4-.9-1.4.2-1.7.8-1.701.5-1.7.1-2.6-.5-4.101-1.8-3.9-3.701-12.502-14.702-1.4-.9-1.1 1.8-.8 6.701-1.2 2.3-2.4.801-3.001-.2-3-.701-6.201-2.6h-1.5l-1 .3-3.101 1.9-2.2 1.001-1.1.8-.5 1.1.3 1.6 1.1.9 7.301 3.501 2 1.6 1.8 2.7 1.601 3.7 4.3 7.001 2.3 2.801.701.6.3.7-.3.7-.701.4-3.7.6-1-.3-.6-1v-1.2l.3-1.4.2-1.401-.6-2.8-1.5-2-2.001-1.5-5.7-2.701-1.3-.3-1.101.2-2.1.9-.9.1-1-.5-1.3-2-.8-.8-1.1-.4-1.301-.1-1.3.3-1.1.5-.6.7-.5 1-1.5 1.7-1.6.701-1.001.8.4 2.1 1.201 2.7.1 1.2-.5 1.901-2.401 5.4-.8.9-2.2.8-.5 1.001.4 1.2.8.9.1.7-1.2.9-1.2.3-3.901-.2-1.1.3-3.3 1.6-1.3.2-.4-3.3-.5-2-.8-1.601-1.1-1.3-1.4-1.1-3.101-1.7-2.5-.3-.6-.2-.6-.5-.8-.6-1.201-1.9-.7-.601-1-.2-1.5.1-3.3 1.101-2.501 1.4-1.5 1.4-.6.6-1.8 3.8-7.302 22.903-.2 1.2v.4l-5.2 2.501-1.7 2.3v3l1.3 6.101-.2 3.001-.4 2.5-.1 2.4 1.1 2.8 1.3 2.101.6 2.1.2 2.2v2.701l.3 2.2.7 2.1 1.2 2 1.2 1.4.9.601.8.4 3.001.7.4.4-.1.5-.7.8-1.2.9-2.7 1.3-1.2 1.4-1.8 3.201-1.1.7-7.102-1.5-5.5-1.101-13.002-.8-14.102-.7-10.801-.6-9.401-.5-.1-35.704V159.44l-.1-18.402V47.527l.2-.1 5.4-1.8 5.401-1.7 5.5-1.801 10.902-3.5 5.4-1.8 5.501-1.7 5.401-1.801 10.901-3.5 5.501-1.7 5.4-1.801 5.501-1.7 5.401-1.8 10.901-3.5 7.301-2.301 7.201-2.2 7.301-2.2 7.301-2.301 3.3-1 3.401-1 6.701-2 3.5-1 7.001-2 3.5-1L149.918.92l1.4.1 1.6.7.5.4-.1.1-.9 2.4-.2 1.5-.3.9-.8 1.7-.2 1.001v2.3l-.2.6-.2.2-.5.3-.2.2-.2.3-.5 1.5-2.1 2.901-.301.5-.1.2-.6.6-2.7 3.8-.3.6-.1.6-.2 2.101-.7 2.2-.8 1.7-.3 1.3-.3 2.6-.3 1.301-.5 1.3-.6 1.2-.401.5-.8.8-.4.5-.2.6-.1.6-.2 1.2-.2 1.201-3.9 9.501-.5 3.7-.2 2.401.1 2.4 1.2 3.5 1.2 3.101 1.6 2.6 1 3.6-.1 1.901-.4 1.3-.5 1.2-1.2.8-1.4 2-.3 1.4-.4.801-.3.6-.1.7.4 3 1 3.3 1.5 1.401 1.1 1.2 2.301.4 2.8-.2 2.9-1.6 3.001-2.5 2.6-2.4 1.7-2.2.9-1.401.7-1.3 1.2-1.4 1.401-2 1.3-2.2 1-1.501 1-1.4.3-1-.8-1.5-1.2-.5-1.4-.6.8 1.9-1 .3-1.401-.4-.6-1 .6-3.1.701-1.401.4-1 1.2-.4.8-.4 1.2.4.3 1.6.3 1 .8.8 1.2.3 1.901-.5 1-1.2-.3-1.6-1.301-1.2-.7-1.2.6-2.1.1-2.601-.7-2.7-.5-2.4v-1.7l1.2-.3 1.601-.301.8-1.8.3-2 .5-1.5.4-2.4-1.3-.801-1.3 1-1.001 2-2.2 1.3-1.4.2-1.5 1.2-1.7-1.2-.1-1.9.7-2 1-2.3.9-2 1.8-2 .9-1.7 1.6-1.601 1.701-1.7 1.3-.6-2.701-2-1.5-1.9-1.3-5.102-.5-3.3-.2-2.2.2-2.5.8-2.9.9-2.401.5-1.2 5.701 3.9 7.401 5 5.101 3.401 13.701 9.401 8.901 5.901-.2.4-1.4 1.9-.8 1.6-1.1 3.701-.9 2.4-1.7 2.9-1.301 1.6-.6 2.901-.7 2.8-.9 2.1-1 1.801-2 2.7-.9 2-.7 2-.4 2.001.7 4.1 1.5 3.501 1.8 2.4 4.801 5.501 7.2 7.2 3.801 3.701 3 2.2 3.001 2.4.7.701.2 1.1-.3 2.3-1.2 1.801-2.701 1.8-.9 2.4-1 2.4-1.3 2.401.9 2.2 2.9.5 2.601-.2 2.3-.7 1.5-1.4 2.1-.2 2.301.4 2.2-.8 2.4-1.601 3.301-2.2 1.5-2 .3-1-.8-.9-1.1-.1-1.001-.4-.6-.6-.2-.7v-.901l.3-.6.4-1 .701-.6.5-.6h1l1.5.1 1.6.3 1.1-.3.9-.9.4-1.1.801-2.7.4-2.6-.3-2.601-.701-4.3-1-3.301-1.3-2.7-.4-2.6-.1-2.201 1-1.4 1-.8 1.1-1.3.801-1.8.5-2.3v-3.001l.1-3.9v-2.001l1.1.8 11.301 7.501 10.601 7.2 9.802 6.402 8.401 5.7 12.101 8.001 3.601 2.4 1.5 1.7 1 2.201.4 1.9.4 4.201.6 1.9 3.4 5.501 6.601 7.301 3.201 3.4 3.2 3.5 4.101 4.701 3.3 3.801 6.701 7.8 3.3 3.801 3.301 3.8 3.3 3.801 6.501 7.501 4.4 5 2.301 1h.1z" fill="#E3E5E8" stroke="#fff" stroke-linecap="round" stroke-linejoin="round"/><path d="M628.076 353.364v.3l-7.101 2.9-.5 1.2-.7.901.9 10.801.1.4.2.3.3.7.5.6.4.2.801.5 5.2 1.4.3.3.2.3.2.3v1.301l-.2 1.4v1.3l.1.4.5 1.3 1.3 2.3-1.6 4.101-8.901 17.302-1.1-1.1-.7-.9-.2-.3-.1-.3-.1-.3v-.4l.4-1.201v-.7l-.1-.3-.1-.3-2-2.3-1.7-1.5-.601-.3-.5-.1-.6.2-4.2 2.9-1.3.6-1.201.2-.9-.2-1.1-.4-1-.6-1.2-.9-.9-.4-.8-.1-.8.2-.7.6-.701.7-.5.9-.5 1-.7 2.101-.2 1.2v1.2l.5 1.4.4.6.3.6-.1.6-.4.9-.4.4-1.2.5-.3.501v.6l.7 1.8.2 2.7-.4 1.7-.8 1.701-.1.5.1.5.3.4.8.8v.7l-.3.5-1.5 2.1-.5 1-.3 1.001-.5 1.7-1.5 3.6-.1.5.1.5.3.1h.4l1.1-.2h.5l.5.1.5.2.3.5.2.4v.6l-.3.701-.6.6-3.7 3.5-.701.4-12.501 2.6-2.5-.5-2.501-1.6-1.2.4-1.1-.6-1.1-.8-2.4-.9-.901-1-1.5-2.1-.6-.1-.2-.1-1.1-.2-5.301-2.401h-.9l-.4.2-.3.3-.3.8-.2.5-.1.3.1 1.001-.2 1.5v.4l-.1.4-.2.2-.1.4-1.5 2.2-.1.5.2.3h.4l.4.1.3.2.3.3.1.4-.1.4-.2.601-.9 2-.2.5-1 3.9-.4.9-.5.301-.7.3h-1.701l-1.6-.2-1.7-.801-2-1.1-.4-.1-.4.2-.3.5-.1.5-.2 1.301-.5.4-.501.4-3.5.9-2.8.4-.6.1-.3.2-.3.3-.1.4.4.9 1.8 2 1.1 1 .5.5.5.701 1.7 6.4.1.6-.1 1.101-.1.7-.2.6-1.7 3.9v.4l.7 2.301 3.101 6.2-1.101.7-5.8 1.301-.1-2.101-.1-.5-.6-2-.3-.8-.3-.5-.901-1.2-1-1.1-.9-.501-1.4-.5-1.1-.6-.5-1.6-.2-1.6v-1.3l-.5-1.7-1-1.701-7.001-3.3-.5-.9-.9-.1-2.501 1.1h-1.1l-.8-.5-.2-.6-.3-.7-.1-.4-2.7-1.5-1.701-1.101-4.2-5.9-.9-1.901.8-1.9 1-2.1 1.9-2.4.2-.3.4-.5.5-1.001 3.501-1.6 1.1-.8 1-1 .8-1.1 2.8-5.601.801-.7.6-.1.4-.3.4-.3.4-.1 1.7-.2.1-.2-.3-.5-.9-1.2-1.7-1.7-.6-1.101-.1-.3v-.2l.3-.1.5-.5 1-2.8-1.5-1.5-.3-1.5v-.601l.1-.8.2-.7.5-.6 1-.6 2-.3h1.3l1.2.3 1.1 1 1.301.9 1.3.4 6.801.1.7-1.3 1.3-4.2 1-1 1.3-1.501 1.6-4.9.1-.9.6-1 .501-.4.5-.2.6.1 3 .6.8.1.1-.9-.3-.901-.1-1.6v-1.9l.1-2 .3-1.9 1.4-4.801-2.8.8-17.602-1.2-5.801-1.4-2-1.2-2-1.601-.8-2.3-.501-2-1.3-7.801-.5-1.8-.7-.1-1.8 2.7-1.9.8-2.501.5-7.701.3-2 .8-1.1.6-1.8 6.801-1.3 1.3-15.702-1.9-2.501-.9-.8-1.7-.1-5.001-.3-2.6-1.2-1.8-1.1-1-1.1-.3-1.2.4-1.1 1-1 1.5-3.501 7.201-4.1 6.201-7.001 2.4.1-1.5-2.1-2.101-1.301-2.3-17.502-10.801-9.001-5.101-7.601-3-5.1-1.1-1.401-.8-7.901-13.902-9.701-11.602-1.5-2.5-1.8-4.3-4.901-.1-20.602 7.801-24.903-34.305-.5-1.1v-1l1.2-1.1 12.501-7.101.7-.7.3-.4-1.2-2.5-6.6-12.202-.201-.8v-.9l1.301-16.302 3.2-7.501 14.902-28.703 15.802-29.904.4-1v-.8l-.9-.5-15.702-4.301-2.901-2.7-6.3-10.701 4.8-.901 4.101-.7 7.401-1.4 6.6-1.2 3.301-.6 5.301-.9 5.3-.9 26.503-4.301 5.301-.9 8.901.9 8.801.8 8.901.8 8.801.801 8.101.7 8.001.7 8.101.8 8.001.7 3.201.3 2-.6 5.901-3.201 5.6-3.1 5.801-3.3 5.601-3.101 1.1-.4 1-.4 1.9.3.9.9 1 .8 6.301 8.201 6.201 8.201 2.9 3.101 2.901 3 6 3.801 6.001 3.7 2.3 2.1 4.901 10.202 3.2 6.5 4.301 9.001 3.8 7.701 1 .1 8.401-4.5 8.302-4.601-1.201 19.703-1.3 19.602-.3 4.201-.5 1.4-1.4.5-.3 1.1-.3 15.302-.2 15.202.2.9.5.4h13.302l6.4.1h7.001l.4-.1.5.1h.4l.3.2 1.001 9.901 1 9.801 1.8 9.601 1.9 9.602 2.5 11.501 2.501 11.301 1.3 1.601 1.3 1.6 1.4.4z" fill="#E3E5E8" stroke="#fff" stroke-linecap="round" stroke-linejoin="round"/><path d="M620.075 403.87l.5.4 7.301.3 2.4.7.901.2 1 .2 1.3-.1 1.5-.3.4-.1.3.3.3.4.4 1 .3.7.1.8-.1 1-.3 1.1-.5 1.201-.1.4-.1.5v.5l.1 3.6.1 1.3.8 4.001.2.3.2.4.4.4 1.201.5.3.3.2.3v.6l-.2.4v.6l.2.6 1.6 1.901-.1 1.8-.2.7-.2.2-.3.3-1.1.3-.301.2-.1.4-.099.4.3 3.401.2.4.2.3.7.2h.5l.5-.1.3-.1 1.1-.5.3-.1h.8l.4.3.3.5.1 1-.2.5v.7l.1.4 2 2.2.8-.3h.301l.2-.1.7 1.1 4.6 1.3.7.1.9-.1.4-.1h.4l1.001.601.4.2.5.1.6-.2 1.3.1 10.101 1.9 1 1.6 1.501 7.101-.201.6-.9.2h-.4l-1.6.4-1.2.4-1.9 1-.9.7-.4.4-.1.4-.2.5v1.801l.1.5.1.4.1.7v1.4l-.1.4-.3.4-.501.2-.5.1h-1.8l-.7.2-.4.7-.2.6-.1 5.201.6 1.3.8 1 2.4 2.1 4.401 3.901-.5.7-.7 2.9-.4 3.001-.1 2.8-.7 2.5-.4 2.501-.4.2-.6-.2-.601.2-.1.1-13.901-3.501-3.101-.2v.4l.1.8v.701l-.2.4-.2.3-.3.3-.3.1-.7.2-6.401.2-.8-.1-.4-.2-.4-.2-.4-.3-.2-.4-.1-.601.1-1.2.4-2-.2-1.1-1.2-2.2-1.2-.2-5.001-1-4.5-.701h-.8l-1 .3-.901.501-.5.4-.4.4-1.9 2.9-.5.5-4.401 1.8h-.4l-.8-.2-.9-.5-3.5-2.7-1.4-1-1.101.1-8.401 1.9-.3.1-5.6 2.7-1.2.8-.9.3h-2.101l-3.9-1-.3-.3-.3-.5-.1-.8-.1-.6v-.5l.1-1.2v-1.1l-.2-.5-.2-.4-1.401-1.101-1.8-1.2-3-3-.6-.8-.4-.6-.1-.4-.6-2.501-.1-.3-.2-.3-.3-.3-.3-.2-.4-.1-.501-.1h-1.8l-.7.1-.5.3-.1.4v1.901l-.1.4-.2.3-.2.3-1.3.9-1.2.7-.7.2-24.803-.6-3.101-6.201-.7-2.3v-.4l1.7-3.901.2-.6.1-.7.1-1.1-.1-.6-1.7-6.401-.5-.7-.5-.5-1.1-1-1.8-2-.4-.9.1-.4.3-.301.3-.2.6-.1 2.8-.4 3.501-.9.5-.4.5-.4.2-1.3.1-.5.3-.5.4-.2.4.1 2 1.1 1.7.8 1.601.2h1.7l.7-.3.5-.3.4-.9 1-3.9.2-.501.9-2 .2-.6.1-.4-.1-.4-.3-.3-.3-.2-.4-.1h-.4l-.2-.3.1-.5 1.5-2.2.1-.4.2-.2.1-.401v-.4l.2-1.5-.1-1 .1-.3.2-.5.3-.8.3-.3.4-.2h.901l5.3 2.4 1.1.2.2.1.6.1 1.501 2.1.9 1.001 2.4.9 1.1.8 1.1.6 1.2-.4 2.501 1.6 2.5.5 12.502-2.6.7-.4 3.7-3.501.6-.6.3-.7v-.6l-.2-.4-.3-.5-.5-.2-.5-.1h-.5l-1.1.2h-.4l-.3-.1-.1-.5.1-.5 1.5-3.601.5-1.7.3-1 .5-1 1.5-2.1.3-.5v-.701l-.8-.8-.3-.4-.1-.5.1-.5.8-1.7.4-1.7-.2-2.701-.7-1.8v-.6l.3-.5 1.2-.5.4-.4.4-.9.1-.6-.3-.6-.4-.6-.5-1.4v-1.201l.2-1.2.7-2.1.501-1 .5-.9.7-.7.7-.6.8-.2.8.1.9.4 1.2.9 1 .6 1.1.4.901.2 1.2-.2 1.3-.6 4.2-2.901.6-.2.5.1.601.3 1.7 1.501 2 2.3.1.3.1.3v.7l-.4 1.2v.4l.1.3.1.3.2.3.7.9 1.1 1.101z" fill="#E3E5E8" stroke="#fff" stroke-linecap="round" stroke-linejoin="round"/><path d="M662.98 495.181l-.4.4-.3.3-.1.5-.1 1.1.4 3.001 1.6 1.5 7.101 2.5 4.701.2 2.3.9.2.3.5.901.3.3.4.1 1-.2.4.1.5.9.1 1-.7 5.801.3 1.9h.1l-.9.7-1 .4-4.2.2-.8.2-.601.3-.4.2-.3.3-.5.4-.3.6-.2.5v.6l.5 1.801.3 2.7 1.4 2.5.101.3.1.4v.5l-.1.4-.101.5v.4l-.1.4v.401l.1.4v.4l.201.3.099.8.101.4v.4l-.2.6-.301.6-.6.9-.3.6-.1.6v1.3l-.1.3-.2.3-.4-.099-.3-.201-1.1-1.1-.2-.2-.3-.2-.4-.2-.9-.2-.9-.1h-.8l-.8.2-.801.4-.5.4-.4.4-.3.3-3.5 6.801-.6.8-1 1.101-.6.4-.9.5-2.301.6-.4 1-.7 1.1-1 1.1-2.2 1.8-.3.5-.4 1-.3 1.201-.6 3.8-.501 1.8-.1.4-.8.8-6.4 5.201-3.301 1.8-.7.2-2.1.4-.5.3-.5.7-.9 1.501-.6 1.5-.301.8-.3.9-.4.9-.4.8-7.101 6.601-.5.7-.3 1.2-.3 2.901-.3 1-.9 1.8-1.8 1.1-.7-2-1.9-1.4-2.101-1.1-2.3-.601h-4.4l-1.801-.5-5.9-2.8-2.701-3.4-1.7-1.701-1.9-.8-3.801-1.1-3.6-2.9-1.6-.9-3.901-.6-5.8-2.801-2.001-.2-1.6.7-2.8 2.201-1.5.9-4.001.3-3.9-1.3-9.601-6.501-5.801-3.901-7.801-5.3-5.501-5.101-7.801-7.001-3.9-2.5-8.501-3-7.501-4.301-12.202-10.401-3.3-4.301.9-.9 5.301-5.901 2.7-1.8 8.001-3.3 3.1-1.1 9.702-3.501.3-.2.3-.3.1-.6v-.5l-.2-.3-.2-.3-1.801-2.3-.4-.6-.3-.7-.1-.3-.1-.4v-.401l.1-.4.4-.6.5-.8 4.401-4.8.4-.3.4-.2.7-.1.6.1.7-.3.7-.6 5.801-5.801 2.7-2.1 5.801-1.301 1.1-.7 24.803.6.7-.2 1.201-.7 1.3-.9.2-.3.2-.3.1-.4v-1.9l.1-.4.5-.3.7-.1h1.8l.5.1.4.1.3.2.3.3.2.3.1.3.6 2.5.1.4.4.6.601.8 3 3.001 1.8 1.2 1.4 1.1.2.4.2.5v1.1l-.1 1.2v.5l.1.601.1.8.3.5.3.3 3.901 1h2.1l.9-.3 1.2-.8 5.601-2.701.3-.1 8.401-1.9 1.1-.1 1.4 1 3.501 2.701.9.5.8.2h.4l4.401-1.801.5-.5 1.9-2.9.4-.4.5-.4.9-.5 1-.3h.8l4.501.7 5.001 1 1.2.2 1.2 2.2.2 1.1-.4 2.001-.1 1.2.1.6.2.4.4.3.4.2.4.2.8.1 6.401-.2.7-.2.3-.1.3-.3.2-.3.2-.4v-.7l-.1-.8v-.4l3.1.2 13.902 3.5z" fill="#E3E5E8" stroke="#fff" stroke-linecap="round" stroke-linejoin="round"/><path d="M620.975 593.693l1.8-1.1.9-1.8.3-1.001.3-2.9.3-1.2.501-.7 7.1-6.601.4-.8.401-.9.3-.9.3-.8.6-1.501.9-1.5.5-.7.5-.3 2.1-.4.7-.2 3.301-1.8 6.4-5.201.801-.8.1-.4.5-1.8.6-3.801.3-1.2.4-1 .3-.5 2.2-1.8 1-1.1.7-1.1.4-1 2.301-.601.9-.5.6-.4 1-1.1.6-.8 3.5-6.801.3-.3.4-.4.501-.4.8-.4.8-.2h.8l.9.1.9.2.4.2.3.2.2.2 1.1 1.1.3.2.4.1.2-.3.1-.3v-1.3l.1-.6.3-.6.601-.9.3-.6.2-.6v-.4l-.1-.4-.1-.8-.2-.301v-.4l-.1-.4v-.4l.1-.4v-.4l.1-.5.1-.4v-.5l-.1-.4-.1-.3-1.401-2.5-.3-2.701-.5-1.8v-.6l.2-.5.3-.6.5-.4.3-.3.4-.2.601-.3.8-.2 4.2-.2 1-.4.9-.7 1.001 1 7.4 1.3 1.601-.1 4.4-1.5.8-.4.8-.2h.9l.901.4.5.2.9.9.9.2 1-.4 1-.7.4-.1h1l.5.1.9 1.1 1.901 4.4 1.7 2.501.6 1.5-.1 1.6-.5 1.3-.7 1-.9.8-1 .5-1.401.301h-1l-.6.4-.2 1.6.1.8.4.6.2.7v.9l-.3.4-1.5 1.1-.4 1.1.1 1.301.8 2.8.1 1.5-.2 4.301.2 1.6.4 1 1.4 2.2.4 1.1.1 2.401.2 1 .5 1.1 2.301 2.2 2.2 3.901 1 1.1 3.001 1.7 4.6 4.1 1.4 2.201.2 2.9-.9 4.301-1.4 4.1-2.3 3.501-.7 1.4-.5 1.2-.2 1.2-.5.9-.901.7-.9.2-2.7.4-1.8.6-1 1.1-2.501 7.501-1.7 3.401-4.2 5.9-3.201 3.001-3 3.8-2.4 4.301-1.701 4.5-.2 3.101 1.2 5.8.2 3.101-.3 2.6-.7 2.5-1.1 2.201-.3 1-.2-1.3-.7-1-1-.601-1.2-.3-2.1.1-.801-.1-.6-.4-1.3-.9-.6-.2-.7.1-1.1.3-.6.1-.4.3-.3.7-.5.701-.6.3-1.001-.901-1.1-3-1.3-.7-1.2.4-1.1.8-1.9 1.9-1.1.901-1.201.6-1.3.3-1.4.2-1.5.3-2.2 1.4-1.301.3-1.3-.5-.6-1.1-.5-1.4-.5-1.301-1.2-1-2.6-1-1.2-.8-.501-1.1-1-3.201-.7-.6-1.2-.4-2.3-1.6-1.1-.6h-2.801l-5.3 1.2-7.601.4-.6.2-1.2 1-.6.201h-1.601l-.7-.201-3.8-1.6-1.4-.2-1.501.2-1.1.3-1.5-1.1.1-1.3.9-1.3 1.1-1.1.9-1.5-.2-1.201-.9-1-1.2-1-.8-2 .3-2.7 1.2-4.901.2-2.9-.4-5.801.2-2.9 2-3.601 3.301-4.2 2.1-4.201-.6-1.5zm325.04-187.023l-.1-.4-.5-1.8-.101-1 .201-1.4.2-1.401v-1.4l-.1-.4-.801-.7-3-.9-.7-.1-.4-.3-1.1-1.7-.8-.6-.6.5-.6.8-1.001.1-3.5-.7-2.8-.9-1.601.1-1.2.2-1.4-.2-.5-.2-.5-.3-2.3-3.201-.5-.9-.5-.5-.7-.4-3.001-1-.9-.1-.7.1-.3.2-.5-.1-.8-.2-1.6-.9h-.6l-.3.3-.101 1.3-.3-.1-.6-.9-1.2-2.4-1.8-2.601 1.7-1.7-.9-1.9-.7-.9-.1-.6.3-.4 1.9-1.801.7-.5.8-1.1 6.001-1.6 1.9.9 2.401-1.1.7-.2h1.3l1.4.1 1.6-.2 7.601 1.9 1 .1 1-.2 3.501-.1.8-.2.4-.2.2-.1.5-.4 1.4-6.401.3-1.3 3.301-1 2.2-.3.4-.4.7-2 .3-.5 1.1-.901.7.501 1.701 2.6 1.2.8 1.7.5 3.1.3.3.2.1.3v.4l-.1.5v1.8l1.101.5 1.4.1 1.2.501 2.4 3.9 1.8 1.9 2.301 1 2.5.3 7.501-.7 2.2.7.3 2.201-.2 1.3.8-.1 2.701-1.9 4.3-2.001.9.6.8 1.201 1.2.8 3.401-.2 1.8.4.3 1.5-1.8 2.4-2.7 1.6-5.501 2.001-5.001 3.1-4.2 1.1-2.001.9-1.4 2.1-.7 5.101-1.7.8-2.1-1h-1.1l-.4 1.3-.1 1.1-.3 1.101-.501.9-.9.8-2.3.1-4.1-2.801-2.201-.3-1.7-.9-1.9-2.2-2-1.7-1.701.8-.2 1.2 1.301 2.1-.1 1.4-.3 1.301v.8l.5.7 2.5 1.8.6 1.6v1.8l-.7 1.901-1.2 1.6-1.3.3-1.601-.6-3.4-2-.9-.3-2.6.1-.801-.301.3-.7.701-.2 1-.1.8-.2.3-.8-.6-.5-1-.1-.5.1z" fill="#E3E5E8" stroke="#fff" stroke-linecap="round" stroke-linejoin="round"/><path d="M918.611 448.975l-.9.2-1.4-.5-1.2-.5-1.2-.9-.6-1.1 1-1.2h1.4l1-.5 2.1-1.6 1.5-.5.2.8-1.3 4.9-.6.9zm-34.104-10.601l.4.1.3-.2.6-.5.4-.2 1.4-.4.801.2.4.7-.4 1.2-2.701 1.9-.9.901.1 2 2.6 2.7-.1 2.4-.7.901-.8.3h-1.9l-2.8.8-.8-.1-.7-.7-.101-.801-.3-.6-1.1-.1-.7.5-.8.801-.8.5-.7-.4-.1-1.901 2.5-3.9-.3-2.3-.7-.5-1.5-.301-.8-.4-.6-1-1.5-3.1-.3-1.3.1-1.2.3-1.401 1-2.3 1.8-1 1.3.8 1 1.8.8 2.101 1 1.3 1.601 1 3.2 1.4.2.2.3.1zm23.903-55.807l1.8 2.601 1.2 2.4.6.9.3.1.101-1.3.3-.3h.6l1.6.9.8.2.5.1.3-.2.7-.1.9.1 3.001 1 .7.4.5.5.5.9 2.3 3.201.5.3.5.2 1.4.2 1.2-.2 1.601-.1 2.8.9 3.5.7 1.001-.1.6-.8.6-.5.8.6 1.1 1.7.4.3.7.1 3 .9.801.7.1.4v1.401l-.2 1.4-.201 1.4.101 1 .5 1.8.1.4-2.601.1-1 .2-3.9 2.201-.5.8-.4 1.4-.801 2.1-1.5 1.6-5.1 2.501-.3 1.1.4 1.2 1.1.7 1.7.8.8.6.3.6-.4.8-.8.2-.9-.1-.7-.3-.4-.1h-.4l-.7.2-2.201-.2-2.3-.5-2.2.1-1.8 1.8-1.001 2.401-.7 1.1-.9.9-3.1 1.8-.8.2-1.2-.5-.3-1.2v-3.1l-.4-1.501-.801-1.7-1.1-.9-1 .9-.4 1.5-.1 1.301-.5.9-1.4.1-2.8-.5-1.301-.6-1.2-.701-1.1-1.1-.5-1.1-.5-.9-2.6-.8-1.8-1.7-1.201-.1-1.8.2-1-.1-.8-.4-.6-.7-.5-.8-.6-.401-.8.201-1.001 1.4-.5 1.7-.8 1.3-1.8.2-6.801-1-3.4.6-2.1 2.1-1.201-.1-5.1.5-8.301 2.501-2.5.2-2.401-.1-2.4-1.701-1-3.2-.8-3.6-1.5-2.501-1.301-.5-1.1.1-1.1.3-1.3.1-1.2-.3-2.901-1.3.801-2.7-.2-.3-.501-.6-.1-.1-.7-1.1-.1-.201-.1-.4-.1-1.6.9-1.5 1.701-1.1 4-.9.6-.3.6-.7 1.4-2.401.801-.8.8-.4.8-.2.9-.4.7-.7 2.1-2.5 3.501-2.901.9-.8.8-.7.5-.2 1-.2.2-.3.1-.4.2-.3.9-.6 1.5-.9.6-.8.5-.7.701-.7.9-.5.8-.1 1.6.2.8-.1 2.7-2.501h1.201l.9.4.5.3.4.4 1.8.2 6.601-.3-3.701 5.001.3.4 2.301.2.4.2 1.7 1.8.4.2.6.2 1.1.2.6.2 1.2 1.001 2.701 1.5.8.2 1.3-.2 3.8-3.601 1.801-2.9 1.2-.9 5.1-2.8 4.801-1.601z" fill="#E3E5E8" stroke="#fff" stroke-linecap="round" stroke-linejoin="round"/><path d="M944.114 366.837l-.3 1.3-1.4 6.401-.5.4-.2.1-.4.2-.8.2-3.501.1-1 .2-1-.1-7.601-1.9-1.6.2-1.4-.1h-1.3l-.7.2-2.401 1.1-1.9-.9-6.001 1.6-.8 1.1-.7.5-1.9 1.801-.3.4.1.6.7.9.9 1.9-1.7 1.7-4.801 1.601-5.1 2.8-1.2.9-1.801 2.9-3.8 3.601-1.3.2-.8-.2-2.701-1.5-1.2-1.001-.6-.2-1.1-.2-.6-.2-.4-.2-1.7-1.8-.4-.2-2.301-.2-.3-.4 3.701-5.001-6.601.3-1.8-.2-.4-.4-.5-.3-.901-.4h-1.2l-2.7 2.501-.8.1-1.6-.2-.8.1-.9.5-.701.7-.5.7-.6.8-1.5.9.1-.6.5-2.6-2.2-1.301-5.301-1.3-.9-1.1-.2-1.4.6-.9 1.1-.2 2.001 1.8 1.2.4.1-1.4-.5-.7-10.602-12.002-1.8-1.6-.2-.2-.1-.3-1.2-1.2.5-1.8-.2-5.701-.2-1.7-1.2-2-1.2-1.6-.3-.601-.2-.5v-.6l.1-.4 1.1-2.4.2-.5.3-1-.2-.7-1.6-.2-.2-.3-.2-.4-.1-1.201-.1-.9.1-.5.1-.5 2.9-3.8.5-.9.7-1.901h.4l1.9-.7 7.201-4.1 1.9-.3 1.101.7 1 1.3 3.3 5.601.5 1.6.1 1.6-.8 4.801.1 1.3.7 1.1.9-.1 1.201-.6 1.3-.1 1.1.5 1 .7 1 1 .8 1.1 1 1 1.2.1 2.501-.3 2.8.5 1.3.601 1.2.9 1 .6 2.201.3.9.8 1.5 2.4.9.7.6-1.5-.1-1.6-.3-1.4.1-1.101 1.2-.7 1.4.2.701.901.7 2.9.5 1.1.8.8.8-.1.6-1.5 1.4-1.8 4.001 3.4 1.3-1.1.3-2.7-.5-13.302.4-1 .8.2 2.8 2.6 2.501 1.1 2-.4 1.6-1.7 1.9-4.2.8-2.601.3-1.5-.2-1.4-1.7-2.2-.6-1.3 1.2-2.901.7-.9 1.3-.5 1.301.2.7 1 .3 1.5v1.601l-1.1 4.4.1.9.5.2.4-.6.2-.8.3-.5.6.3.3 1.2.6.3.4-.4.1-1.7.4-.3.4.2.5.4 5.501 8.201.9 2.3.3 2.601-.1 3.2.3 3.3 1.5.7 4.601-.8 1.4 1.2.9 1.301 1 .5 1.7-1 1.301-1.201 1.4-.8 1.4-.3 1.5.9.6 1.501.3 2.1.1 2.2.5 4.001v1.5l-.4 1.4-.8 1.9 1.8-.6zm-90.211 4.201l-.7-1.901-.8-1.3-1.4-1.2-1.6-.7-.9.2.6 1.6 1.1 1.1 1.7 2.301 1 .9 1.1.3-.1-1.3zm-138.116 20.03l-.2 3.101-.7.8-3.201.6-.8.1-.3.2-.3.2-.1.4-.1 1.8-.4 2.901.2.4.3.3.9-.2 1.1-.3h.5l.2.9-6.901 15.802-.2 1.1-.2 1.2.3 2.1.2.6.3.6.301.2 1.6.3 13.201.3 17.402-4.3h.2l.1.1-.3.6-.3.4-.2.4-.3.5-.8 2.901-.2.5-.2.7.7 1.3v.1l-2.3.6-1.2.9 1.5 1.6 2.6 1.7 2.001.8.6-.099-2.501 3.3-.9 1.6-.3.8v1.1l.1.4.2.7.4.801.4 1.4.2.7.1.4v.7l-.1 2.5-.2.4h-.3l-.1-.3-.3-.3-.3-.1-.3-.1-.5.3-.1.3.2.3.2.3 1.1.6.3.3.1.3-.1.401-.1.5-.3.7-.1 1.2-.1.7h-.2l-.6-.1-.6 1.7-.6 12.202-.3 1.8-.8 1.5-1.4 1.4-2.501 1.6-.8 1.1.7 1.501-1.2.5-3.6 1-2.801.2-2.9-.2-4.7-1.7-8.702-.2-19.902-5.201-2.7-.1-2.201.7-5.4 3.901-4.601.7-1.2 1.2.4 3.3-.2.3-.2.2-.3.1-.3.1-1.5-.2-.9.1-4.401-3.9-2.4-2.1-.8-1.001-.6-1.3.1-5.2.2-.6.4-.701.7-.2h1.8l.5-.1.5-.2.3-.4.1-.4v-1.4l-.1-.7-.1-.4-.1-.5v-1.8l.2-.5.1-.4.4-.4.9-.701 1.901-1 1.2-.4 1.6-.4h.4l.9-.2.2-.6-1.5-7.101-1-1.6-10.101-1.9-1.3-.1-.601.2-.5-.1-.4-.2-1-.6h-.4l-.4.1-.9.1-.7-.1-4.601-1.3-.7-1.101-.2.1h-.3l-.8.301-2-2.201-.1-.4v-.7l.2-.5-.1-1-.3-.5-.4-.3h-.8l-.3.1-1.101.5-.3.1-.5.1h-.5l-.7-.2-.2-.3-.2-.4-.3-3.401.1-.4.1-.4.3-.2 1.1-.3.3-.3.2-.2.2-.7.1-1.8-1.6-1.9-.2-.6v-.6l.2-.401v-.6l-.2-.3-.3-.3-1.2-.5-.4-.4-.2-.4-.2-.3-.8-4-.1-1.301-.1-3.6v-.5l.1-.5.1-.4.5-1.2.3-1.1.1-1.001-.1-.8-.3-.7-.4-1-.3-.4-.3-.3-.4.1-1.5.3-1.301.1-1-.2-.9-.2-2.4-.7-7.301-.3-.5-.4 8.901-17.302 1.6-4.101-1.3-2.3-.5-1.3-.1-.4v-1.3l.2-1.401v-1.3l-.2-.3-.2-.3-.3-.3-5.201-1.4-.8-.5-.4-.2-.5-.6-.3-.7-.2-.3-.1-.4-.9-10.802.7-.9.5-1.2 7.101-2.9v-.3l3.3.9 6.801-.4 5.701-.4 14.602-.9 7.501-.4 12.201-.8 7.401-.401 1.4.401 2.4 1.3 1.301.4 1.1-.2 1.7-1.1 1.7-1.101 1.4-1 .4 1.2.3 1.001.2.2.4.8 1.301 1.7 1.3 1.7.6 1.4.2 1.5.2 1.401.4.7.4.6.7-.6.7-.3.7.1.7.8.8-1.7 1.201-.1.2 1.6v.2l-.1.7.6.2.1.1-1.301 1-.5.3.5.2.2.4.501.9v2.201l-.3 1.3-.3 1.3-.401 1.2-.4 1.3-.9 2-.7 1.001-.8 1-1 .7-2 1-.6.4-.1.6.3.3 2.3.5 1.8 1 5.301 5.301 2 1.5 1.9 1.6 2.401 1.2z" fill="#E3E5E8" stroke="#fff" stroke-linecap="round" stroke-linejoin="round"/><path d="M737.489 453.076l.1-.7.1-1.2.3-.7.1-.5.1-.4-.1-.3-.3-.301-1.1-.6-.2-.3-.2-.3.1-.3.5-.3.3.1.3.1.3.3.1.3h.3l.2-.4.1-2.5v-.7l-.1-.4-.2-.7-.4-1.4-.4-.8-.2-.701-.1-.4v-1.1l.3-.8.9-1.6 2.501-3.3 13.601-2.701 2.701 1.9.4 1.101.1 1.2v1.1l-.5.9-1.301.2-4.3-.6-1.1.3-2.1 1.8-.801.3-1.3-2.4-.9-.7-.7 1.4.1.7 1 .8.2.6-.1 1.5.1.701.3.8 5.101 7.101.2 1.7-2.5 1-1.301-2.1-.9-3.201-1.2-2.6-1.2-.9-.4.6.2 1.4.6 1.7 1.3 2.701-.1 1.1-.7 1.5-.2.1-.6.1-.2.1-.4 1.2v.5l-.1.7-.4.5-.8-.4-1.5-2.5-1-.8-2.001 1.8-.6-.3zm25.203-27.903l-1.9-1.001-1.3-.2-9.401 1.501-1.2.5-2.001 1.1-1.4.2-3.3-.6-1.3.1-3.301.9v-.1l-.7-1.3.2-.7.2-.5.8-2.901.3-.5.2-.4.3-.4.3-.6-.1-.1h-.2l-17.402 4.3-13.201-.3-1.601-.3-.3-.2-.3-.6-.2-.6-.3-2.1.2-1.2.2-1.1 6.901-15.802-.2-.9h-.5l-1.1.3-.9.2-.3-.3-.2-.4.4-2.901.1-1.8.1-.4.3-.2.3-.2.8-.1 3.201-.6.7-.8.2-3.101 4.5 2.401 6.801 3.6.2-.4.7-.7h.9l.4-.5.4-.7.5-.3.7.1 2.301 1.1 1.5.3 1.3-.8.3-1-1.1-.6 1.4-2.301.1-.5-.5-.9-.3-.9-.3-1 .1-1-1.5-.3-.5-.3-.5-.6-.4-1.5-.3-3.201-.3-3.2.1-.6.1-.6.4-.4.3-.3.4-.8.1-.801-.2-1.7.1-.8.2.1.6.2.2.2.7-1.8 1.6-1.1 1.2-.6 3.001 2.7.4.7.2.8.1 1.8.2.601.3.2.5-.401h.2l.2.501.2 1.3.9-.4 1.3.3 1.3.5.9.7.501.7.6 1.3.5.5.4.3 1.5.8.7.5.3.4.6 1.301v.3l-.1.9.1.4.4.3.4.1.4-.1.4.1.8.8.6.9.2 1-.8 1 .9.6.801-.3.8-.5.9-.3.6.3-.3.8-.9 1.501 2.5-.401 1 .1.7 1.901 1.1.9.3.7-.3.6-.9.9v.6l.4.3.6-.4.6-.7.601-.3.5.3.4.5v.5l-1.501.7-.5 1.1-.7 2.701.7-.1.6.1.601.2.5.4-1.101.6.1.6.601.6.4.5.1.6.2.7.1.7-.2.6-.9 1.101-.301.6-.3.7-.2.6-1.2 7.001.8 2.1.4.6.1 1.1-.8 3-.3 1.101z" fill="#E3E5E8" stroke="#fff" stroke-linecap="round" stroke-linejoin="round"/><path d="M887.308 271.354l-8.201-5.801-1.8-.8-1.901.2-2.5 2-1.3 1.2-3.901 3.201-1.1.6-1.1.5-2.2.3-2.7-.7h-1.401l-.8 1.2-.5 1.4-.6 1.1-.8 1-.9.901-1.3 2.6-.5 1.4-.6 1.5-1.2 2.3-.901.401-.9.4-1.4-.2-1.2-.501-.9-.9-.4-1.4-.5-1.1-.9-1-1.101-.8-.8-.1-5.7 2.4-1.2 1.1-1.301 1.1-1.4 3.201-.2.7-.2.7-.8.8-.9.5-1.1.4-1 .5-.8.9-2.001 3.401-2 3.5-.7.8-.7.9-4.901 3.601-1.6.6-1.6.6-.9.7-.8 1.2-1.8 2.1-2.401 1.001-3.2.2-3.301.1-3.9 1.1-3.9 1.1-1.001.8-.8.9-.9 1-2.9 2.3-3.001 2.401-3.3 1-1.5 1.2-.4 1-.4 1 .2.8 1 1.801.1.8-.7.4-1.7-.3-1.801-.3-.8.2-2.3 1.5-.8.1-1.7-.7-1 .3-1.601 1-1.5 1-1.5 1.4-.6 1.6-1-.4-1.1.3-2.701 1.301-.5.4-.3.6.2.6.5.7.3.2.2.3.1.9.1 1.3-.5 3.601-.4 3.7-.5.9-1 1-1 .7-1 .7-1 .501-1.1.5-2.501.3-1.2.4-.3.5-.4.5-1.5 2.5-1.9.9-2 .9-.901.9-.7.901-1.1 3.1-1.1 3.1-1.2 1.4-2.3 1.001 3 2.7.4.7.2.8.1 1.8.2.6.3.2.5-.4h.2l.2.5.2 1.301.9-.4 1.301.3 1.3.5.9.7.5.7.6 1.3.5.5.4.3 1.5.8.7.5.3.4.6 1.3v.3l-.1.901.1.4.4.3.4.1.401-.1.4.1.8.8.6.9.2 1-.8 1 .9.6.8-.3.8-.5.9-.3.6.3-.3.8-.9 1.5 2.5-.4 1 .1.701 1.901 1.1.9.3.7-.3.6-.9.9v.6l.4.3.6-.4.6-.7.6-.3.5.3.4.5v.5l-1.5.7-.5 1.1-.7 2.701.7-.1.6.1.6.2.5.4-1.1.6.1.6.6.6.4.5.1.6.2.7.1.7-.2.6-.9 1.1-.3.6-.3.701-.2.6-1.2 7 .8 2.101.4.6.1 1.1-.8 3-.3 1.1 2 1.001 5.201 1.5 2.9.1 2.2-1v-1.801l-4.2-3.8-.3-2.2 1.5-.2 2.3.8 1.8-.3.5-3.701-.4-1.7-.6-1.5-1.5-2.7-.6-1.401-1.2-4.3h-.1l-2.3-3.901v-1.6l2.1-1.5 3.5-.3.9-.5.2-1-.4-4.101.1-2.8.4-2.3.9-2.001 1.401-1.9.9-.7.9-.5 1.9-.6 1 .1.8.6.7.8.9.5 1.901.2 1.3 1.3 2.3 3.501.7.6 1.4 1 .701.8 1 1.8.6.8.8.701 1.8.6 1.5-.5 1.4-1.201 2.401-3.1 1.2-1 1.3-.6 10.701-3.401 5.501-4.2 6.001-2.4 4.2-2.601 3.201-3.8 1.6-8.101 2.2-.6 2.6 1.1.7.8.5-1.8-.2-5.701-.2-1.7-1.2-2-1.2-1.601-.3-.6-.2-.5v-.6l.1-.4 1.1-2.4.2-.5.3-1-.2-.7-1.6-.2-.2-.3-.2-.4-.1-1.201-.1-.9.1-.5.1-.5 2.9-3.8.5-.9.701-1.901h-1.001l-.9-.8-1.4-2.7-.9-1.1-1-.9-2.1-1.3-.1-.1-8.201-.901-2.101-1.1-1.1-2.5 1.3-2 9.402-5.601 3.4-2.7 1.9-1 1.8-1.101 1.401-2.1 1.7-3.7 2.5-3.001 5.701-4.9 1.8-1.1 5.801-.6 2-.801.7-1.3.1-4.5 1.1-2.901 2.3-.6 2.901.1 2.4-.6 8.201-6.1 4.801-1.401 2.2-1.5.8-3-2-.7z" fill="#EE6800"/></svg>