<svg width="98" height="100" fill="none" xmlns="http://www.w3.org/2000/svg"><path d="M87.711 62.39l-.218.116-23.438 16.092a19.406 19.406 0 01-11.916 1.655l-16.935-3.118a7.533 7.533 0 00-5.504.746l-.059.034-7.098 4.488 1.42 4.656 7.788-4.924a7.554 7.554 0 015.563-.78l16.935 3.118c4.049.725 8.22.144 11.916-1.655l28.202-19.362a5.535 5.535 0 00-6.656-1.066z" fill="#E3E5E8"/><path d="M77.814 58.379l-.027.015-1.182.636a8.976 8.976 0 00-10.278-.928l-6.361 3.46h-8.468a12.211 12.211 0 01-5.294-1.213l-1.165-.562a19.98 19.98 0 00-20.796 2.032.987.987 0 00-.08.065l-2.81 2.501a9.75 9.75 0 01-3.68 2.051l-1.597-5.241a1.265 1.265 0 00-1.212-.897H1.265A1.262 1.262 0 00.01 61.717l4.533 37.17A1.266 1.266 0 005.8 100h20.398a1.267 1.267 0 001.211-1.634l-2.68-8.794 8.347-5.275a5.026 5.026 0 013.663-.473c.026.006.053.013.079.017l16.977 3.127a21.97 21.97 0 0013.576-1.918 1.01 1.01 0 00.154-.09L96.89 64.798a1.264 1.264 0 00.368-1.696 8.06 8.06 0 00-10.747-2.939l-.5.269c-2.026-2.455-5.53-3.406-8.198-2.053zm1.159 2.254c1.543-.774 3.486-.14 4.727 1.044l-11.136 6.007-.653.344a9.705 9.705 0 00-1.526-2.772l8.588-4.623zm-11.42-.316l.03-.016a6.439 6.439 0 016.55.06l-5.66 3.05a9.611 9.611 0 00-3.617-1.628l2.698-1.465zM6.92 97.47L2.695 62.831h11.23L24.487 97.47H6.92zm87.448-34.012L66.165 82.82a19.407 19.407 0 01-11.916 1.655l-16.936-3.119a7.533 7.533 0 00-5.503.747c-.019.01-.038.023-.06.034l-7.788 4.924-5.55-18.2a12.287 12.287 0 004.624-2.586l2.772-2.469a17.46 17.46 0 0118.13-1.744l1.164.562a14.757 14.757 0 006.396 1.465h11.294a7.14 7.14 0 017.005 5.802l-8.186-.37a49.02 49.02 0 00-8.908.412 1.264 1.264 0 00-.835 2.036c.281.36.734.54 1.184.472a46.52 46.52 0 018.447-.392l9.634.436.057.002c.7 0 1.267-.566 1.267-1.266 0-.205-.009-.408-.021-.61l1.32-.695 13.957-7.526a5.53 5.53 0 016.654 1.067z" fill="#1B3B8D"/><path d="M10.943 92.232a3.985 3.985 0 107.97 0 3.985 3.985 0 00-7.97 0zm3.987-1.452a1.454 1.454 0 11-.003 2.906 1.454 1.454 0 01.003-2.906z" fill="#1B3B8D"/><path d="M37.237 45.702a38.4 38.4 0 0010.76 5.504c.228.067.471.067.7.002a40.2 40.2 0 0011.118-5.495C67.188 40.5 71.082 33.579 71.082 25.7V13.46c0-.508-.3-.964-.767-1.163l-.138-.06A101.152 101.152 0 0149.48.253a1.269 1.269 0 00-1.518 0 101.235 101.235 0 01-20.7 11.988l-.14.06a1.266 1.266 0 00-.768 1.162v12.241c-.002 7.872 3.763 14.788 10.884 20zm-8.353-31.41a103.6 103.6 0 0019.834-11.45 103.727 103.727 0 0019.834 11.45v11.411c0 5.451-2.011 10.265-5.988 14.369v-.239a1.266 1.266 0 10-2.533 0v1.29c0 .35.144.685.4.924a33.275 33.275 0 01-2.022 1.56 38.958 38.958 0 01-10.053 5.057 37.124 37.124 0 01-9.685-5.049 32.024 32.024 0 01-1.823-1.446c.347-.234.554-.628.554-1.046v-1.29a1.266 1.266 0 10-2.533 0v.47c-3.979-4.153-5.99-9.047-5.99-14.602V14.293h.005z" fill="#EE6800"/><path d="M48.718 38.567c-.7 0-1.267.566-1.267 1.266v1.29a1.266 1.266 0 102.533 0v-1.29c0-.7-.566-1.266-1.266-1.266zm4.194 0c-.7 0-1.266.566-1.266 1.266v1.29a1.266 1.266 0 102.533 0v-1.29a1.269 1.269 0 00-1.267-1.266zm2.927 1.266v1.29a1.266 1.266 0 102.532 0v-1.29a1.266 1.266 0 10-2.532 0zm-11.314-1.266c-.7 0-1.266.566-1.266 1.266v1.29a1.266 1.266 0 102.533 0v-1.29c0-.7-.567-1.266-1.267-1.266zM40.33 42.39c.7 0 1.267-.567 1.267-1.267v-1.29a1.266 1.266 0 10-2.533 0v1.29c.002.7.569 1.266 1.266 1.266zm5.683-11.668a1.266 1.266 0 001.791 0l8.398-8.397a1.268 1.268 0 00-.006-1.785 1.268 1.268 0 00-1.785-.006l-7.503 7.503-3.884-3.881a1.266 1.266 0 10-1.79 1.79l4.78 4.776z" fill="#EE6800"/></svg>